HIERARCHY
ROOT Hips
{
	OFFSET 0.000000 0.000000 0.000000
	CHANNELS 6 Xposition Yposition Zposition Xrotation Yrotation Zrotation
	JOINT LeftUpLeg_virtual
	{
		OFFSET 0.000000 0.000000 0.000000
		CHANNELS 3 Xrotation Yrotation Zrotation
		JOINT LeftUpLeg
		{
			OFFSET 11.394100 -6.187798 -0.413800
			CHANNELS 3 Xrotation Yrotation Zrotation
			JOINT LeftLeg
			{
				OFFSET 0.430247 -32.302673 3.732800
				CHANNELS 3 Xrotation Yrotation Zrotation
				JOINT LeftFoot
				{
					OFFSET -0.430247 -48.264931 -6.423300
					CHANNELS 3 Xrotation Yrotation Zrotation
					JOINT LeftToeBase
					{
						OFFSET 4.230900 -16.068199 23.438400
						CHANNELS 3 Xrotation Yrotation Zrotation
						JOINT LeftToe_End
						{
							OFFSET 4.510700 0.695400 19.974600
							CHANNELS 3 Xrotation Yrotation Zrotation
							End Site
							{
								OFFSET 0 0 0
							}
						}
					}
				}
			}
		}
	}
	JOINT RightUpLeg_virtual
	{
		OFFSET 0.000000 0.000000 0.000000
		CHANNELS 3 Xrotation Yrotation Zrotation
		JOINT RightUpLeg
		{
			OFFSET -11.333700 -6.187798 -0.413800
			CHANNELS 3 Xrotation Yrotation Zrotation
			JOINT RightLeg
			{
				OFFSET -0.430392 -32.302628 3.733000
				CHANNELS 3 Xrotation Yrotation Zrotation
				JOINT RightFoot
				{
					OFFSET 0.430392 -48.264973 -6.423500
					CHANNELS 3 Xrotation Yrotation Zrotation
					JOINT RightToeBase
					{
						OFFSET -4.230900 -16.068199 23.438400
						CHANNELS 3 Xrotation Yrotation Zrotation
						JOINT RightToe_End
						{
							OFFSET -4.510700 0.695400 19.974600
							CHANNELS 3 Xrotation Yrotation Zrotation
							End Site
							{
								OFFSET 0 0 0
							}
						}
					}
				}
			}
		}
	}
	JOINT Spine_virtual
	{
		OFFSET 0.000000 0.000000 0.000000
		CHANNELS 3 Xrotation Yrotation Zrotation
		JOINT Spine
		{
			OFFSET -0.002400 12.777504 0.315300
			CHANNELS 3 Xrotation Yrotation Zrotation
			JOINT Spine1
			{
				OFFSET -0.002067 5.816869 0.032633
				CHANNELS 3 Xrotation Yrotation Zrotation
				JOINT Spine1_split
				{
					OFFSET -0.002067 5.816869 0.032633
					CHANNELS 3 Xrotation Yrotation Zrotation
					JOINT Spine2
					{
						OFFSET -0.002067 5.816869 0.032633
						CHANNELS 3 Xrotation Yrotation Zrotation
						JOINT Neck_virtual
						{
							OFFSET 0.000000 0.000000 0.000000
							CHANNELS 3 Xrotation Yrotation Zrotation
							JOINT Neck
							{
								OFFSET -0.003700 21.199493 -0.826900
								CHANNELS 3 Xrotation Yrotation Zrotation
								JOINT Head
								{
									OFFSET 0.000000 20.442200 4.834800
									CHANNELS 3 Xrotation Yrotation Zrotation
									JOINT HeadTop_End
									{
										OFFSET 0.000000 34.668396 4.968400
										CHANNELS 3 Xrotation Yrotation Zrotation
										End Site
										{
											OFFSET 0 0 0
										}
									}
								}
							}
						}
						JOINT LeftShoulder_virtual
						{
							OFFSET 0.000000 0.000000 0.000000
							CHANNELS 3 Xrotation Yrotation Zrotation
							JOINT LeftShoulder
							{
								OFFSET 3.288150 8.794197 -1.372250
								CHANNELS 3 Xrotation Yrotation Zrotation
								JOINT LeftShoulder_split
								{
									OFFSET 3.288150 8.794197 -1.372250
									CHANNELS 3 Xrotation Yrotation Zrotation
									JOINT LeftArm
									{
										OFFSET 11.953299 -2.279007 -0.146200
										CHANNELS 3 Xrotation Yrotation Zrotation
										JOINT LeftForeArm
										{
											OFFSET 18.448900 0.000000 0.000000
											CHANNELS 3 Xrotation Yrotation Zrotation
											JOINT LeftHand
											{
												OFFSET 29.527798 0.000000 0.000000
												CHANNELS 3 Xrotation Yrotation Zrotation
												End Site
												{
													OFFSET 0 0 0
												}
											}
										}
									}
								}
							}
						}
						JOINT RightShoulder_virtual
						{
							OFFSET 0.000000 0.000000 0.000000
							CHANNELS 3 Xrotation Yrotation Zrotation
							JOINT RightShoulder
							{
								OFFSET -3.249400 8.794197 -1.372250
								CHANNELS 3 Xrotation Yrotation Zrotation
								JOINT RightShoulder_split
								{
									OFFSET -3.249400 8.794197 -1.372250
									CHANNELS 3 Xrotation Yrotation Zrotation
									JOINT RightArm
									{
										OFFSET -11.953299 -2.279007 -0.146200
										CHANNELS 3 Xrotation Yrotation Zrotation
										JOINT RightForeArm
										{
											OFFSET -18.448900 0.000000 0.000000
											CHANNELS 3 Xrotation Yrotation Zrotation
											JOINT RightHand
											{
												OFFSET -29.527802 0.000000 0.000000
												CHANNELS 3 Xrotation Yrotation Zrotation
												End Site
												{
													OFFSET 0 0 0
												}
											}
										}
									}
								}
							}
						}
					}
				}
			}
		}
	}
}
MOTION
Frames: 7
Frame Time: 0.03333333
-2.613357 49.758080 63.549252 0.000000 0.000000 0.000000 21.919255 -28.235883 -7.815476 2.297535 -0.330061 8.124468 94.653226 -9.724947 -2.542263 13.891657 -1.099653 -15.296426 0.477137 -1.007774 -5.296005 0.000000 0.000000 0.000000 22.075620 -20.137382 -10.126230 -15.162865 18.905047 -5.543198 67.884396 9.075827 -7.939358 54.668998 5.443050 18.028920 16.720943 -4.270294 1.359134 0.000000 0.000000 0.000000 20.865086 -24.622731 -9.256877 7.278288 1.689960 4.171219 -3.111571 2.307468 1.707011 0.183201 -2.932185 1.425943 0.000000 0.000000 0.000000 -4.232806 2.707541 1.876493 -58.842537 -1.815252 19.197893 16.887959 16.020393 -15.630111 0.000000 0.000000 0.000000 -4.780706 2.624356 1.692697 -19.386864 0.749912 -15.480200 -3.669404 3.331640 -3.408935 10.975488 6.676789 -49.594167 72.352310 -32.222579 38.354668 0.000000 0.000000 0.000000 -5.026356 2.500509 1.837444 -18.461387 0.457088 22.921948 -9.607010 0.161867 -1.003074 5.197468 -8.301450 50.613109 6.871181 33.250198 9.270140 0.000000 0.000000 0.000000 
-1.812425 49.769005 66.602173 0.000000 0.000000 0.000000 23.076622 -29.921611 -7.993786 4.635616 0.159987 7.493757 90.061010 -7.319010 -4.422118 13.066732 0.679788 -16.081470 0.581555 -1.211809 -5.384588 0.000000 0.000000 0.000000 23.386535 -21.456042 -10.274233 -15.153241 18.203557 -5.427190 67.352980 9.405906 -8.023667 53.363906 5.913654 17.826816 16.975768 -4.610872 0.942401 0.000000 0.000000 0.000000 22.656637 -24.836654 -9.576982 6.867626 1.420735 4.639655 -3.498320 2.057428 2.101107 0.404612 -2.571019 1.247770 0.000000 0.000000 0.000000 -4.464773 2.572960 2.216307 -60.595300 -2.530915 20.190779 17.910745 16.558696 -16.228179 0.000000 0.000000 0.000000 -5.084836 2.439159 2.063054 -19.413127 1.159589 -15.349680 -3.101308 2.996630 -3.773509 11.896464 10.326044 -46.617728 75.136056 -33.884282 38.748957 0.000000 0.000000 0.000000 -5.321494 2.375353 2.119053 -18.388882 -0.906911 22.479175 -8.628423 -0.037309 -0.172015 5.176915 -4.604114 52.750220 -2.145599 37.775970 13.743609 0.000000 0.000000 0.000000 
-1.084173 49.695309 69.533051 0.000000 0.000000 0.000000 24.627751 -31.193139 -7.723992 6.930435 0.047585 6.463476 86.146806 -5.737932 -5.094230 13.665597 1.247400 -17.795086 -0.850532 -1.421541 -4.617313 0.000000 0.000000 0.000000 25.084017 -22.738309 -10.058406 -15.325403 17.009468 -5.684123 67.270902 9.900011 -7.906263 53.053095 7.210428 17.867083 16.325633 -4.859635 0.047187 0.000000 0.000000 0.000000 24.830963 -24.777138 -9.467634 6.367881 1.083016 4.754665 -3.664006 1.818645 2.561935 0.654556 -2.168619 0.997997 0.000000 0.000000 0.000000 -4.445059 2.420577 2.629772 -62.661836 -3.139204 20.503799 18.651693 16.519779 -16.747299 0.000000 0.000000 0.000000 -5.158235 2.287563 2.517983 -19.464752 1.097751 -14.702320 -1.987338 2.476964 -4.206138 13.492716 11.514525 -43.250257 74.382782 -37.496014 37.390108 0.000000 0.000000 0.000000 -5.256694 2.275390 2.475331 -18.455811 -2.020929 22.013594 -7.406685 -0.717047 0.658419 5.632802 -1.047615 55.291122 -8.028611 44.203328 15.890724 0.000000 0.000000 0.000000 
-0.574783 49.522232 72.190521 0.000000 0.000000 0.000000 26.580139 -31.615122 -7.128692 8.598724 -0.769501 5.219771 82.498488 -4.997008 -4.641355 15.531548 0.638631 -20.000846 -1.714855 -1.678543 -3.471329 0.000000 0.000000 0.000000 27.212298 -23.753755 -9.581822 -15.427676 15.695039 -6.103729 67.115488 10.456711 -7.708781 53.318431 8.929471 18.134608 14.954405 -4.965974 -1.015205 0.000000 0.000000 0.000000 27.397060 -24.447764 -9.078164 5.825014 0.779332 4.536338 -3.644716 1.651045 3.031618 0.808993 -1.686906 0.964537 0.000000 0.000000 0.000000 -4.265185 2.301494 3.058966 -64.891209 -3.531868 20.183952 19.102473 15.851966 -17.134657 0.000000 0.000000 0.000000 -5.030736 2.215385 2.976155 -19.538326 0.604154 -13.638856 -1.087164 2.034158 -4.639616 15.272955 10.828667 -39.862388 69.781297 -41.806734 33.704023 0.000000 0.000000 0.000000 -4.882872 2.245463 2.824040 -18.713468 -2.676095 21.678071 -6.346787 -1.488541 1.256110 6.539248 1.627348 56.931058 -9.741854 51.345069 14.891144 0.000000 0.000000 0.000000 
-0.342041 49.236214 74.502129 0.000000 0.000000 0.000000 29.124166 -30.992106 -6.438187 9.537574 -2.448760 3.912056 77.834964 -4.192120 -3.590696 17.057332 -0.213551 -21.803999 -1.106116 -1.835362 -2.725288 0.000000 0.000000 0.000000 29.865672 -24.115750 -8.982255 -15.019955 14.476668 -6.472375 66.398345 10.715310 -7.394849 53.578606 10.273568 18.340931 13.245849 -4.891910 -1.782112 0.000000 0.000000 0.000000 30.276309 -23.804073 -8.663246 5.246338 0.556747 4.120509 -3.515303 1.572677 3.437444 0.921770 -1.226804 1.160436 0.000000 0.000000 0.000000 -4.008279 2.222472 3.404748 -67.158737 -3.700499 19.394356 19.408297 14.697717 -17.437150 0.000000 0.000000 0.000000 -4.770705 2.261057 3.337321 -19.599404 -0.082951 -12.355601 -0.789790 1.462918 -5.198340 17.393775 9.081626 -36.971510 62.256170 -45.825071 28.256182 0.000000 0.000000 0.000000 -4.349318 2.265501 3.085316 -19.097065 -2.907396 21.506601 -5.351596 -1.931570 1.288996 7.750076 3.144609 57.121565 -6.125307 58.272469 9.657862 0.000000 0.000000 0.000000 
-0.366031 48.782845 76.856743 0.000000 0.000000 0.000000 32.308038 -29.125644 -6.052142 10.315431 -4.804992 2.616906 71.665302 -2.810960 -2.126712 17.048553 -0.412149 -22.966602 0.807107 -1.809430 -2.954811 0.000000 0.000000 0.000000 32.999495 -23.659442 -8.490598 -14.113616 13.635370 -6.602141 64.918127 10.608216 -7.013451 53.481908 10.821811 18.468374 11.547532 -4.676179 -1.994256 0.000000 0.000000 0.000000 33.472216 -22.820362 -8.375600 4.656101 0.454331 3.615815 -3.356232 1.564315 3.714434 0.895048 -0.848698 1.314185 0.000000 0.000000 0.000000 -3.806316 2.193863 3.621408 -69.317473 -3.544853 18.359357 19.757816 13.265642 -17.779910 0.000000 0.000000 0.000000 -4.476361 2.402351 3.519252 -19.629161 -0.667283 -10.948635 -1.449664 1.069513 -5.744793 20.098202 6.941997 -35.001919 54.261683 -49.104498 22.922550 0.000000 0.000000 0.000000 -3.804929 2.330071 3.202501 -19.491996 -2.861989 21.378936 -4.959054 -1.844594 1.118860 9.588897 3.594499 55.887637 3.562374 63.676167 -0.581644 0.000000 0.000000 0.000000 
-0.609346 48.013527 79.269585 0.000000 0.000000 0.000000 36.033657 -26.179803 -6.121950 11.236200 -7.514486 1.624523 64.353926 -1.104305 -0.232787 15.706220 -0.328018 -23.983898 2.176959 -1.538257 -3.855956 0.000000 0.000000 0.000000 36.545241 -22.223059 -8.425293 -12.666455 13.227771 -6.488012 62.875771 10.298251 -6.715280 52.885482 10.624454 18.636800 10.205275 -4.364506 -1.680195 0.000000 0.000000 0.000000 37.061163 -21.358065 -8.350890 4.115793 0.481180 3.153313 -3.247985 1.590921 3.847436 0.818714 -0.726343 1.501459 0.000000 0.000000 0.000000 -3.738984 2.204814 3.717117 -71.322352 -3.188377 17.362138 20.206322 11.849622 -18.261088 0.000000 0.000000 0.000000 -4.279689 2.599068 3.544767 -19.625201 -0.996283 -9.494664 -2.585860 0.563413 -6.440698 23.142450 4.774210 -33.953106 48.320744 -52.134448 19.703836 0.000000 0.000000 0.000000 -3.428117 2.404925 3.180890 -19.806956 -2.730350 21.141812 -5.084632 -1.322634 0.989527 12.204617 3.153092 53.551760 17.708705 66.964049 -14.268142 0.000000 0.000000 0.000000 
